# xmcd database file
#
# Track frame offsets:
# 150
# 23101
# 40703
# 64184
# 77112
# 100019
# 129173
# 151821
# 175971
# 196806
#
# Disc length: 3025 seconds
#
# Revision: 1
# Processed by: cddbd v1.4PL0 Copyright (c) Steve Scherf et al.
# Submitted via: CD-Runner 2003.05
#
DISCID=700bcf0a
DTITLE=Flora Purim - Speak No Evil
DYEAR=2003
DGENRE=Jazz
TTITLE0=This Magic
TTITLE1=You Go To My Head
TTITLE2=Speak No Evil (All For One)
TTITLE3=I've Got You Under My Skin
TTITLE4=Tamanco no Samba
TTITLE5=Don't Say A Word
TTITLE6=Primeira Estrela
TTITLE7=It Ain't Necessarily So
TTITLE8=I Feel You
TTITLE9=O Sonho (Moon Dreams)
EXTD=YEAR: 2003\n
EXTT0=
EXTT1=
EXTT2=
EXTT3=
EXTT4=
EXTT5=
EXTT6=
EXTT7=
EXTT8=
EXTT9=
PLAYORDER=
